<svg width="27" height="27" viewBox="0 0 27 27" fill="none" xmlns="http://www.w3.org/2000/svg">
<path d="M9.60625 9.375C9.60625 11.5219 11.3531 13.2688 13.5 13.2688C15.6469 13.2688 17.3938 11.5219 17.3938 9.375C17.3938 7.22806 15.6469 5.48125 13.5 5.48125C11.3531 5.48125 9.60625 7.22806 9.60625 9.375ZM11.1437 9.375C11.1437 8.07819 12.2032 7.01875 13.5 7.01875C14.7968 7.01875 15.8562 8.07819 15.8562 9.375C15.8562 10.6718 14.7968 11.7312 13.5 11.7312C12.2032 11.7312 11.1437 10.6718 11.1437 9.375Z" fill="#049B3B" stroke="#049B3B" stroke-width="0.6"/>
<path d="M18.1001 19.75C18.1001 20.1719 18.4469 20.5188 18.8688 20.5188C19.2908 20.5188 19.6376 20.1719 19.6376 19.75C19.6376 16.8657 16.8298 14.6062 13.5001 14.6062C10.1704 14.6062 7.3626 16.8657 7.3626 19.75C7.3626 20.1719 7.70941 20.5188 8.13135 20.5188C8.55328 20.5188 8.9001 20.1719 8.9001 19.75C8.9001 17.8195 10.8986 16.1437 13.5001 16.1437C16.1016 16.1437 18.1001 17.8195 18.1001 19.75Z" fill="#049B3B" stroke="#049B3B" stroke-width="0.6"/>
<rect x="1" y="1" width="25" height="25" rx="12.5" stroke="#049B3B" stroke-width="1.8"/>
</svg>
