<svg width="202" height="186" viewBox="0 0 202 186" fill="none" xmlns="http://www.w3.org/2000/svg">
<g filter="url(#filter0_d_41_377)">
<path d="M124.104 27.9217C96.5354 20.1852 67.8503 36.3701 60.0845 64.0436C57.4481 73.4383 57.6 83.0646 59.9556 91.8773C57.0886 97.7924 50.8787 106.625 40.1985 107.924C40.1985 107.924 57.8638 114.974 71.2406 112.669C77.6697 119.871 86.0962 125.43 95.9641 128.2C123.533 135.936 152.218 119.751 159.984 92.0777C167.75 64.4042 151.673 35.6582 124.104 27.9217Z" fill="#FFFF01"/>
<path d="M62.2053 92.9677L62.6111 92.1305L62.3708 91.2317C60.1248 82.8291 59.9825 73.6597 62.4915 64.7191C69.8866 38.3664 97.1978 22.9677 123.429 30.3287C149.66 37.6897 164.972 65.0496 157.577 91.4022C150.182 117.755 122.871 133.154 96.6395 125.793C87.2598 123.16 79.2378 117.874 73.1056 111.004L72.1824 109.97L70.8161 110.206C64.6396 111.27 57.2817 110.182 51.2917 108.731C50.2839 108.487 49.3229 108.235 48.4222 107.984C55.5831 104.323 59.9668 97.5859 62.2053 92.9677Z" stroke="#FFFF01" stroke-width="5"/>
</g>
<path d="M82.872 65.78C82.872 64.9133 83.032 64.0667 83.352 63.24C83.672 62.4 84.1387 61.64 84.752 60.96C85.3654 60.28 86.112 59.74 86.992 59.34C87.872 58.9267 88.872 58.72 89.992 58.72C91.3254 58.72 92.4787 59.0067 93.452 59.58C94.4387 60.1533 95.172 60.9 95.652 61.82L93.132 63.58C92.9187 63.0733 92.632 62.68 92.272 62.4C91.9254 62.12 91.5387 61.9267 91.112 61.82C90.6987 61.7 90.2987 61.64 89.912 61.64C89.2854 61.64 88.7387 61.7667 88.272 62.02C87.8054 62.26 87.4187 62.5867 87.112 63C86.8054 63.4133 86.5787 63.8733 86.432 64.38C86.2854 64.8867 86.212 65.3933 86.212 65.9C86.212 66.46 86.2987 67 86.472 67.52C86.6454 68.04 86.892 68.5 87.212 68.9C87.5454 69.3 87.9454 69.62 88.412 69.86C88.8787 70.0867 89.392 70.2 89.952 70.2C90.352 70.2 90.7587 70.1333 91.172 70C91.5854 69.8667 91.9654 69.66 92.312 69.38C92.672 69.0867 92.9454 68.7067 93.132 68.24L95.812 69.82C95.532 70.5133 95.072 71.1067 94.432 71.6C93.792 72.0933 93.0654 72.4733 92.252 72.74C91.452 72.9933 90.6587 73.12 89.872 73.12C88.8454 73.12 87.8987 72.9133 87.032 72.5C86.1787 72.0733 85.4387 71.5133 84.812 70.82C84.1987 70.1133 83.7187 69.3267 83.372 68.46C83.0387 67.58 82.872 66.6867 82.872 65.78ZM88.272 54.7L89.972 55.96L91.672 54.7L93.312 55.44L91.132 57.58H88.832L86.632 55.44L88.272 54.7ZM96.5416 69.86C96.5416 69.1667 96.7349 68.56 97.1216 68.04C97.5082 67.52 98.0416 67.1133 98.7216 66.82C99.4016 66.5133 100.182 66.36 101.062 66.36C101.488 66.36 101.908 66.4 102.322 66.48C102.735 66.5467 103.095 66.6467 103.402 66.78V66.32C103.402 65.7467 103.228 65.3067 102.882 65C102.535 64.6933 102.008 64.54 101.302 64.54C100.715 64.54 100.162 64.64 99.6416 64.84C99.1349 65.04 98.5949 65.3267 98.0216 65.7L97.0616 63.66C97.7549 63.2067 98.4749 62.8667 99.2216 62.64C99.9816 62.4133 100.782 62.3 101.622 62.3C103.195 62.3 104.415 62.68 105.282 63.44C106.162 64.1867 106.602 65.2733 106.602 66.7V69.44C106.602 69.76 106.648 69.9867 106.742 70.12C106.848 70.24 107.028 70.3133 107.282 70.34V73C107.015 73.0533 106.762 73.0933 106.522 73.12C106.295 73.1467 106.095 73.16 105.922 73.16C105.322 73.16 104.862 73.04 104.542 72.8C104.235 72.56 104.042 72.2333 103.962 71.82L103.902 71.36C103.435 71.96 102.875 72.42 102.222 72.74C101.582 73.0467 100.908 73.2 100.202 73.2C99.5082 73.2 98.8816 73.0533 98.3216 72.76C97.7749 72.4667 97.3416 72.0667 97.0216 71.56C96.7016 71.0533 96.5416 70.4867 96.5416 69.86ZM102.902 70.26C103.048 70.14 103.168 70.0067 103.262 69.86C103.355 69.7133 103.402 69.5733 103.402 69.44V68.5C103.135 68.3933 102.835 68.3133 102.502 68.26C102.182 68.1933 101.882 68.16 101.602 68.16C101.015 68.16 100.528 68.2933 100.142 68.56C99.7549 68.8133 99.5616 69.1533 99.5616 69.58C99.5616 69.82 99.6282 70.04 99.7616 70.24C99.8949 70.44 100.075 70.6 100.302 70.72C100.542 70.84 100.822 70.9 101.142 70.9C101.462 70.9 101.782 70.84 102.102 70.72C102.422 70.6 102.688 70.4467 102.902 70.26ZM123.708 73H120.508V67.1C120.508 66.4067 120.375 65.9067 120.108 65.6C119.855 65.28 119.515 65.12 119.088 65.12C118.795 65.12 118.495 65.2 118.188 65.36C117.882 65.52 117.602 65.74 117.348 66.02C117.108 66.3 116.922 66.62 116.788 66.98V73H113.588V62.5H116.468V64.26C116.735 63.8467 117.068 63.4933 117.468 63.2C117.868 62.9067 118.328 62.6867 118.848 62.54C119.368 62.38 119.935 62.3 120.548 62.3C121.228 62.3 121.775 62.4267 122.188 62.68C122.615 62.92 122.935 63.24 123.148 63.64C123.375 64.04 123.522 64.4733 123.588 64.94C123.668 65.3933 123.708 65.84 123.708 66.28V73ZM130.854 73.2C129.961 73.2 129.168 73.06 128.474 72.78C127.781 72.4867 127.188 72.0933 126.694 71.6C126.214 71.1067 125.848 70.54 125.594 69.9C125.341 69.2467 125.214 68.5667 125.214 67.86C125.214 66.8467 125.434 65.9267 125.874 65.1C126.328 64.26 126.974 63.5867 127.814 63.08C128.654 62.56 129.668 62.3 130.854 62.3C132.041 62.3 133.048 62.5533 133.874 63.06C134.714 63.5667 135.354 64.2333 135.794 65.06C136.234 65.8733 136.454 66.76 136.454 67.72C136.454 67.9067 136.441 68.0933 136.414 68.28C136.401 68.4533 136.388 68.6067 136.374 68.74H128.614C128.654 69.2067 128.781 69.6 128.994 69.92C129.221 70.24 129.508 70.4867 129.854 70.66C130.201 70.82 130.568 70.9 130.954 70.9C131.434 70.9 131.881 70.7867 132.294 70.56C132.721 70.3333 133.014 70.0267 133.174 69.64L135.894 70.4C135.628 70.9467 135.248 71.4333 134.754 71.86C134.274 72.2733 133.701 72.6 133.034 72.84C132.381 73.08 131.654 73.2 130.854 73.2ZM128.534 66.78H133.094C133.041 66.34 132.914 65.96 132.714 65.64C132.514 65.3067 132.248 65.0533 131.914 64.88C131.581 64.6933 131.214 64.6 130.814 64.6C130.401 64.6 130.028 64.6933 129.694 64.88C129.374 65.0533 129.114 65.3067 128.914 65.64C128.714 65.96 128.588 66.34 128.534 66.78ZM138.245 75.7L138.865 72.96H137.885V69.74H140.585V72.96L139.645 75.7H138.245ZM80.5176 90.74C80.5176 89.7133 80.7176 88.7933 81.1176 87.98C81.5176 87.1533 82.0642 86.5 82.7576 86.02C83.4509 85.54 84.2509 85.3 85.1576 85.3C85.8909 85.3 86.5576 85.48 87.1576 85.84C87.7576 86.1867 88.2109 86.6467 88.5176 87.22V81.4H91.7176V92.44C91.7176 92.76 91.7709 92.9867 91.8776 93.12C91.9842 93.24 92.1576 93.3133 92.3976 93.34V96C91.8376 96.1067 91.3842 96.16 91.0376 96.16C90.4909 96.16 90.0442 96.04 89.6976 95.8C89.3642 95.56 89.1576 95.2267 89.0776 94.8L89.0176 94.26C88.6442 94.9133 88.1376 95.4 87.4976 95.72C86.8576 96.04 86.1842 96.2 85.4776 96.2C84.7576 96.2 84.0909 96.0667 83.4776 95.8C82.8776 95.52 82.3509 95.1333 81.8976 94.64C81.4576 94.1467 81.1176 93.5667 80.8776 92.9C80.6376 92.2333 80.5176 91.5133 80.5176 90.74ZM88.5376 92.04V89.84C88.4042 89.48 88.2109 89.1667 87.9576 88.9C87.7176 88.6333 87.4376 88.42 87.1176 88.26C86.8109 88.1 86.4976 88.02 86.1776 88.02C85.8309 88.02 85.5109 88.0933 85.2176 88.24C84.9376 88.3867 84.6909 88.5933 84.4776 88.86C84.2642 89.1133 84.0976 89.4067 83.9776 89.74C83.8709 90.0733 83.8176 90.4267 83.8176 90.8C83.8176 91.1867 83.8776 91.5467 83.9976 91.88C84.1309 92.2 84.3109 92.4867 84.5376 92.74C84.7642 92.98 85.0309 93.1667 85.3376 93.3C85.6442 93.4333 85.9776 93.5 86.3376 93.5C86.5642 93.5 86.7842 93.4667 86.9976 93.4C87.2109 93.32 87.4109 93.22 87.5976 93.1C87.7976 92.98 87.9776 92.8267 88.1376 92.64C88.2976 92.4533 88.4309 92.2533 88.5376 92.04ZM93.5435 92.86C93.5435 92.1667 93.7368 91.56 94.1235 91.04C94.5102 90.52 95.0435 90.1133 95.7235 89.82C96.4035 89.5133 97.1835 89.36 98.0635 89.36C98.4902 89.36 98.9102 89.4 99.3235 89.48C99.7368 89.5467 100.097 89.6467 100.404 89.78V89.32C100.404 88.7467 100.23 88.3067 99.8835 88C99.5368 87.6933 99.0102 87.54 98.3035 87.54C97.7168 87.54 97.1635 87.64 96.6435 87.84C96.1368 88.04 95.5968 88.3267 95.0235 88.7L94.0635 86.66C94.7568 86.2067 95.4768 85.8667 96.2235 85.64C96.9835 85.4133 97.7835 85.3 98.6235 85.3C100.197 85.3 101.417 85.68 102.284 86.44C103.164 87.1867 103.604 88.2733 103.604 89.7V92.44C103.604 92.76 103.65 92.9867 103.744 93.12C103.85 93.24 104.03 93.3133 104.284 93.34V96C104.017 96.0533 103.764 96.0933 103.524 96.12C103.297 96.1467 103.097 96.16 102.924 96.16C102.324 96.16 101.864 96.04 101.544 95.8C101.237 95.56 101.044 95.2333 100.964 94.82L100.904 94.36C100.437 94.96 99.8768 95.42 99.2235 95.74C98.5835 96.0467 97.9102 96.2 97.2035 96.2C96.5102 96.2 95.8835 96.0533 95.3235 95.76C94.7768 95.4667 94.3435 95.0667 94.0235 94.56C93.7035 94.0533 93.5435 93.4867 93.5435 92.86ZM99.9035 93.26C100.05 93.14 100.17 93.0067 100.264 92.86C100.357 92.7133 100.404 92.5733 100.404 92.44V91.5C100.137 91.3933 99.8368 91.3133 99.5035 91.26C99.1835 91.1933 98.8835 91.16 98.6035 91.16C98.0168 91.16 97.5302 91.2933 97.1435 91.56C96.7568 91.8133 96.5635 92.1533 96.5635 92.58C96.5635 92.82 96.6302 93.04 96.7635 93.24C96.8968 93.44 97.0768 93.6 97.3035 93.72C97.5435 93.84 97.8235 93.9 98.1435 93.9C98.4635 93.9 98.7835 93.84 99.1035 93.72C99.4235 93.6 99.6902 93.4467 99.9035 93.26ZM109.99 90.74C109.99 89.7133 110.19 88.7933 110.59 87.98C110.99 87.1533 111.537 86.5 112.23 86.02C112.924 85.54 113.724 85.3 114.63 85.3C115.364 85.3 116.03 85.48 116.63 85.84C117.23 86.1867 117.684 86.6467 117.99 87.22V81.4H121.19V92.44C121.19 92.76 121.244 92.9867 121.35 93.12C121.457 93.24 121.63 93.3133 121.87 93.34V96C121.31 96.1067 120.857 96.16 120.51 96.16C119.964 96.16 119.517 96.04 119.17 95.8C118.837 95.56 118.63 95.2267 118.55 94.8L118.49 94.26C118.117 94.9133 117.61 95.4 116.97 95.72C116.33 96.04 115.657 96.2 114.95 96.2C114.23 96.2 113.564 96.0667 112.95 95.8C112.35 95.52 111.824 95.1333 111.37 94.64C110.93 94.1467 110.59 93.5667 110.35 92.9C110.11 92.2333 109.99 91.5133 109.99 90.74ZM118.01 92.04V89.84C117.877 89.48 117.684 89.1667 117.43 88.9C117.19 88.6333 116.91 88.42 116.59 88.26C116.284 88.1 115.97 88.02 115.65 88.02C115.304 88.02 114.984 88.0933 114.69 88.24C114.41 88.3867 114.164 88.5933 113.95 88.86C113.737 89.1133 113.57 89.4067 113.45 89.74C113.344 90.0733 113.29 90.4267 113.29 90.8C113.29 91.1867 113.35 91.5467 113.47 91.88C113.604 92.2 113.784 92.4867 114.01 92.74C114.237 92.98 114.504 93.1667 114.81 93.3C115.117 93.4333 115.45 93.5 115.81 93.5C116.037 93.5 116.257 93.4667 116.47 93.4C116.684 93.32 116.884 93.22 117.07 93.1C117.27 92.98 117.45 92.8267 117.61 92.64C117.77 92.4533 117.904 92.2533 118.01 92.04ZM123.016 92.86C123.016 92.1667 123.21 91.56 123.596 91.04C123.983 90.52 124.516 90.1133 125.196 89.82C125.876 89.5133 126.656 89.36 127.536 89.36C127.963 89.36 128.383 89.4 128.796 89.48C129.21 89.5467 129.57 89.6467 129.876 89.78V89.32C129.876 88.7467 129.703 88.3067 129.356 88C129.01 87.6933 128.483 87.54 127.776 87.54C127.19 87.54 126.636 87.64 126.116 87.84C125.61 88.04 125.07 88.3267 124.496 88.7L123.536 86.66C124.23 86.2067 124.95 85.8667 125.696 85.64C126.456 85.4133 127.256 85.3 128.096 85.3C129.67 85.3 130.89 85.68 131.756 86.44C132.636 87.1867 133.076 88.2733 133.076 89.7V92.44C133.076 92.76 133.123 92.9867 133.216 93.12C133.323 93.24 133.503 93.3133 133.756 93.34V96C133.49 96.0533 133.236 96.0933 132.996 96.12C132.77 96.1467 132.57 96.16 132.396 96.16C131.796 96.16 131.336 96.04 131.016 95.8C130.71 95.56 130.516 95.2333 130.436 94.82L130.376 94.36C129.91 94.96 129.35 95.42 128.696 95.74C128.056 96.0467 127.383 96.2 126.676 96.2C125.983 96.2 125.356 96.0533 124.796 95.76C124.25 95.4667 123.816 95.0667 123.496 94.56C123.176 94.0533 123.016 93.4867 123.016 92.86ZM129.376 93.26C129.523 93.14 129.643 93.0067 129.736 92.86C129.83 92.7133 129.876 92.5733 129.876 92.44V91.5C129.61 91.3933 129.31 91.3133 128.976 91.26C128.656 91.1933 128.356 91.16 128.076 91.16C127.49 91.16 127.003 91.2933 126.616 91.56C126.23 91.8133 126.036 92.1533 126.036 92.58C126.036 92.82 126.103 93.04 126.236 93.24C126.37 93.44 126.55 93.6 126.776 93.72C127.016 93.84 127.296 93.9 127.616 93.9C127.936 93.9 128.256 93.84 128.576 93.72C128.896 93.6 129.163 93.4467 129.376 93.26ZM136.358 91.1C136.358 90.6867 136.398 90.3 136.478 89.94C136.558 89.58 136.711 89.24 136.938 88.92C137.178 88.6 137.524 88.3133 137.978 88.06C138.151 87.9533 138.378 87.8333 138.658 87.7C138.951 87.5533 139.238 87.38 139.518 87.18C139.798 86.98 140.031 86.7467 140.218 86.48C140.418 86.2133 140.518 85.92 140.518 85.6C140.518 85.3067 140.438 85.06 140.278 84.86C140.131 84.6467 139.938 84.4867 139.698 84.38C139.471 84.26 139.218 84.2 138.938 84.2C138.591 84.2 138.284 84.28 138.018 84.44C137.764 84.6 137.551 84.7933 137.378 85.02C137.204 85.2333 137.051 85.44 136.918 85.64L134.858 84.2C135.084 83.6533 135.404 83.1933 135.818 82.82C136.244 82.4333 136.731 82.14 137.278 81.94C137.838 81.7267 138.431 81.62 139.058 81.62C139.551 81.62 140.051 81.6933 140.558 81.84C141.064 81.9867 141.524 82.22 141.938 82.54C142.351 82.86 142.678 83.28 142.918 83.8C143.171 84.3067 143.298 84.9133 143.298 85.62C143.298 86.0067 143.258 86.36 143.178 86.68C143.111 86.9867 142.998 87.2733 142.838 87.54C142.678 87.7933 142.478 88.0333 142.238 88.26C141.998 88.4733 141.731 88.68 141.438 88.88C141.064 89.12 140.691 89.34 140.318 89.54C139.944 89.7267 139.631 89.94 139.378 90.18C139.124 90.42 138.998 90.7267 138.998 91.1H136.358ZM136.418 96V93H139.038V96H136.418Z" fill="#282828"/>
<defs>
<filter id="filter0_d_41_377" x="0.198456" y="0.988892" width="201.74" height="184.143" filterUnits="userSpaceOnUse" color-interpolation-filters="sRGB">
<feFlood flood-opacity="0" result="BackgroundImageFix"/>
<feColorMatrix in="SourceAlpha" type="matrix" values="0 0 0 0 0 0 0 0 0 0 0 0 0 0 0 0 0 0 127 0" result="hardAlpha"/>
<feOffset dy="15"/>
<feGaussianBlur stdDeviation="20"/>
<feComposite in2="hardAlpha" operator="out"/>
<feColorMatrix type="matrix" values="0 0 0 0 0 0 0 0 0 0 0 0 0 0 0 0 0 0 0.1 0"/>
<feBlend mode="normal" in2="BackgroundImageFix" result="effect1_dropShadow_41_377"/>
<feBlend mode="normal" in="SourceGraphic" in2="effect1_dropShadow_41_377" result="shape"/>
</filter>
</defs>
</svg>
