<svg width="70" height="70" viewBox="0 0 70 70" fill="none" xmlns="http://www.w3.org/2000/svg">
<path d="M34.9727 0C15.6406 0 -0.0273438 15.668 -0.0273438 35C-0.0273438 54.332 15.6406 70 34.9727 70C36.8594 70 38.7188 69.8496 40.5371 69.5625C40.8789 69.5078 41.207 69.4531 41.5488 69.3848C41.5488 69.3848 41.5488 69.3848 41.5625 69.3848C57.7363 66.3086 69.9727 52.0898 69.9727 35C69.9727 15.668 54.3047 0 34.9727 0ZM34.9727 66.459C17.6367 66.459 3.52734 52.3496 3.52734 35.0137C3.52734 28.2051 5.70117 21.9023 9.37891 16.748L21.5059 28.875L11.6621 38.7188C10.9648 39.416 10.9648 40.5371 11.6621 41.2344L36.832 66.4043C36.2168 66.4316 35.6016 66.459 34.9727 66.459ZM40.0723 12.1816C39.4023 12.4551 38.9785 13.1113 38.9785 13.8223V63.5195L15.4355 39.9629L25.2793 30.1191C25.9766 29.4219 25.9766 28.3008 25.2793 27.6035L11.6211 13.959C17.377 7.57422 25.7168 3.55469 34.9727 3.55469C52.3086 3.55469 66.418 17.6641 66.418 35.0137C66.418 35.6562 66.4043 36.2988 66.3633 36.9277L42.0137 12.5645C41.5078 12.0586 40.7422 11.9082 40.0723 12.1816ZM42.5332 65.5293V18.1016L65.7891 41.3574C63.3418 53.2109 54.209 62.6445 42.5332 65.5293Z" fill="#049B3B"/>
</svg>
